<svg xmlns="http://www.w3.org/2000/svg" width="35.163" height="35.161" viewBox="1076 304 35.163 35.161"><path d="M1082.592 323.778h-4.394a2.199 2.199 0 0 1-2.198-2.198v-15.383a2.199 2.199 0 0 1 2.198-2.197h21.976a2.197 2.197 0 0 1 2.197 2.197v15.383a2.197 2.197 0 0 1-2.197 2.198h-10.987l-6.595 6.592v-6.592Zm15.384 8.79h-10.987l4.018-4.396h13.564a2.197 2.197 0 0 0 2.197-2.197v-13.184h2.198c1.212 0 2.197.983 2.197 2.197v15.382a2.2 2.2 0 0 1-2.197 2.199h-4.395v6.592l-6.595-6.592Z" fill="rgba(239, 214, 47, 1)" fill-rule="evenodd" data-name="Icon Chat Room"/></svg>