<svg xmlns="http://www.w3.org/2000/svg" width="31.575" height="35.879" viewBox="1334 300 31.575 35.879"><path d="M1337.09 334.66a7.24 7.24 0 0 0 4.053 1.22h17.288a7.724 7.724 0 0 0 .154-.002 7.6 7.6 0 0 0 6.09-3.363 6.37 6.37 0 0 0 .9-3.28c0-1.149-.3-2.326-.9-3.447l-7.925-13.455c-.48-.672-1.2-1.122-2.161-1.122h-9.604a2.834 2.834 0 0 0-.515.046 2.568 2.568 0 0 0-1.646 1.076l-7.924 13.455a6.605 6.605 0 0 0-.9 3.364 6.605 6.605 0 0 0 .9 3.363 8.456 8.456 0 0 0 2.19 2.145Zm7.297-27.996a2.667 2.667 0 0 0 .598.063h9.604a3.047 3.047 0 0 0 .293-.014c.565-.054.976-.274 1.388-.659l2.4-2.241a2.442 2.442 0 0 0 .018-.02c1.012-1.159.798-3.122-.795-3.655a2.834 2.834 0 0 0-.904-.138h-14.405a3.247 3.247 0 0 0-.4.024c-2.077.259-2.639 2.52-1.281 3.789l2.4 2.241c.334.312.669.515 1.084.61Z" fill="rgba(239, 214, 47, 1)" fill-rule="evenodd" data-name="icon_money-bag"/></svg>