<svg xmlns="http://www.w3.org/2000/svg" width="13.635" height="13.634" viewBox="631 198 13.635 13.634"><path d="M636.113 210.782a1.055 1.055 0 0 0 .015.176c.07.412.387.676.837.676h1.705a1.056 1.056 0 0 0 .176-.014c.412-.07.676-.388.676-.838v-11.93a1.054 1.054 0 0 0-.014-.174.774.774 0 0 0-.416-.584.934.934 0 0 0-.422-.094h-1.705a1.053 1.053 0 0 0-.175.014.774.774 0 0 0-.582.414.932.932 0 0 0-.095.424v11.93Zm5.113 0a1.055 1.055 0 0 0 .014.174c.07.413.388.678.839.678h1.704a1.055 1.055 0 0 0 .175-.014.774.774 0 0 0 .583-.415.934.934 0 0 0 .094-.423v-7.669a1.055 1.055 0 0 0-.015-.176c-.07-.412-.387-.676-.837-.676h-1.704a1.055 1.055 0 0 0-.178.014c-.411.07-.675.388-.675.838v7.669Zm-9.798.757a.933.933 0 0 0 .424.095h1.704a1.055 1.055 0 0 0 .178-.015c.412-.07.675-.388.675-.837v-3.408a1.055 1.055 0 0 0-.014-.176.774.774 0 0 0-.415-.582.935.935 0 0 0-.424-.095h-1.704a1.054 1.054 0 0 0-.174.014.774.774 0 0 0-.584.417.935.935 0 0 0-.094.422v3.408a1.053 1.053 0 0 0 .015.177.774.774 0 0 0 .413.58Z" fill="rgba(255, 255, 255, 1)" fill-rule="evenodd" data-name="icon_dashboard"/></svg>