<svg xmlns="http://www.w3.org/2000/svg" width="13.635" height="13.634" viewBox="631 452 13.635 13.634"><path d="M633.556 459.669h-1.704a.853.853 0 0 1-.852-.852v-5.965c0-.47.382-.852.852-.852h8.522c.47 0 .852.382.852.852v5.965c0 .47-.381.852-.852.852h-4.26l-2.558 2.556v-2.556Zm5.966 3.409h-4.26l1.557-1.705h5.26c.47 0 .851-.381.851-.852v-5.112h.853c.47 0 .852.38.852.852v5.964a.853.853 0 0 1-.852.853h-1.704v2.556l-2.557-2.556Z" fill="rgba(255, 255, 255, 1)" fill-rule="evenodd" data-name="icon_chat-room"/></svg>