<?xml version="1.0" encoding="utf-8"?>
<!-- Generator: Adobe Illustrator 24.0.1, SVG Export Plug-In . SVG Version: 6.00 Build 0)  -->
<svg version="1.1" id="Layer_1" xmlns="http://www.w3.org/2000/svg" xmlns:xlink="http://www.w3.org/1999/xlink" x="0px" y="0px"
	 viewBox="0 0 12.2 13.6" style="enable-background:new 0 0 12.2 13.6;" xml:space="preserve">
<style type="text/css">
	.st0{fill:#A3A0FB;}
</style>
<path class="st0" d="M7,8.5H5.2C2.4,8.5,0,10.8,0,13.6h12.2C12.2,10.8,9.8,8.5,7,8.5z M2.3,11.9c0.2-0.4,0.6-0.8,1-1.1
	c0.6-0.4,1.3-0.7,2.1-0.7H7c0.2,0,0.4,0,0.5,0c1,0.1,2,0.8,2.5,1.7H2.3z"/>
<path class="st0" d="M6.1,7.7c1.9,0,3.5-1.5,3.5-3.4V3.4C9.6,1.5,8,0,6.1,0C4.2,0,2.6,1.5,2.6,3.4v0.9C2.6,6.1,4.2,7.7,6.1,7.7z
	 M4.4,3.4L4.4,3.4c0-1,0.8-1.7,1.7-1.7c1,0,1.7,0.8,1.7,1.7v0.9c0,1-0.8,1.7-1.7,1.7c-1,0-1.7-0.8-1.7-1.7V3.4z"/>
</svg>
