<svg xmlns="http://www.w3.org/2000/svg" width="12.199" height="13.634" viewBox="632 401 12.199 13.634"><path d="M637.228 409.521a5.187 5.187 0 0 0-5.228 5.113h12.2a5.187 5.187 0 0 0-5.23-5.113h-1.742Zm-2.614-4.26v-.853a3.458 3.458 0 0 1 3.485-3.408 3.458 3.458 0 0 1 3.486 3.408v.852c0 1.875-1.568 3.409-3.486 3.409-1.916 0-3.485-1.534-3.485-3.409Zm-.349 7.668h7.756a3.51 3.51 0 0 0-2.51-1.665 3.693 3.693 0 0 0-.54-.04h-1.656a3.58 3.58 0 0 0-2.07.65 3.466 3.466 0 0 0-.98 1.055Zm2.092-8.52v.851a1.729 1.729 0 0 0 1.742 1.705 1.73 1.73 0 0 0 1.744-1.705v-.852c0-.937-.784-1.704-1.744-1.704a1.729 1.729 0 0 0-1.742 1.704Z" fill="rgba(255, 255, 255, 1)" fill-rule="evenodd" data-name="icon_customers"/></svg>