<svg xmlns="http://www.w3.org/2000/svg" width="13.778" height="13.777"><path d="M6.89 0A6.91 6.91 0 0 0 0 6.889c0 3.789 3.1 6.888 6.89 6.888a6.909 6.909 0 0 0 6.888-6.888C13.778 3.1 10.678 0 6.89 0Zm0 8.61A1.727 1.727 0 0 1 5.166 6.89c0-.947.775-1.722 1.722-1.722s1.723.775 1.723 1.722S7.836 8.61 6.889 8.61Zm0 3.445c-.776 0-1.55-.172-2.24-.516l1.34-1.34a4.216 4.216 0 0 0 .41.091c.467.079.876.048 1.39-.091l1.338 1.34a5.027 5.027 0 0 1-2.239.516ZM1.721 6.886a4.566 4.566 0 0 0 0 .003 5.325 5.325 0 0 0 0 .01 5.02 5.02 0 0 0 .517 2.229l1.34-1.34a4.439 4.439 0 0 1-.076-.324 2.879 2.879 0 0 1-.015-1.066 4.217 4.217 0 0 1 .091-.408L2.24 4.65a5.02 5.02 0 0 0-.517 2.236Zm7.406-4.647a5.021 5.021 0 0 0-2.239-.516 5.022 5.022 0 0 0-2.239.516l1.34 1.34a4.443 4.443 0 0 1 .325-.076c.503-.097.93-.072 1.473.076l1.34-1.34Zm2.411 6.889-1.34-1.34a4.216 4.216 0 0 0 .092-.41 2.877 2.877 0 0 0-.015-1.064 4.433 4.433 0 0 0-.076-.325l1.34-1.339a5.025 5.025 0 0 1 .516 2.236 4.566 4.566 0 0 1 0 .003c0 .775-.172 1.55-.517 2.239Z" fill="rgba(255, 255, 255, 1)" fill-rule="evenodd" data-name="Path 107"/></svg>