<svg xmlns="http://www.w3.org/2000/svg" width="13.778" height="13.777"><path d="m11.453 4.478.948-1.808-1.206-1.206-1.808.947c-.259-.172-.603-.258-.948-.344L7.751 0H6.028L5.34 1.98c-.26.087-.603.173-.861.345L2.67 1.378 1.378 2.67l.947 1.808c-.171.257-.257.599-.343.857a4.204 4.204 0 0 1-.001.004L0 6.028V7.75l1.98.689c.082.322.237.569.327.881a1.872 1.872 0 0 1 .018.066l-.947 1.808L2.584 12.4l1.808-.948c.258.173.603.26.947.345l.69 1.98H7.75l.688-1.98a2.412 2.412 0 0 0 .333-.112c.2-.082.389-.176.615-.233l1.808.948 1.206-1.206-.948-1.808a1.899 1.899 0 0 0 .214-.468c.05-.154.09-.316.13-.48l1.981-.688V6.028l-1.98-.689a4.03 4.03 0 0 1-.001-.003c-.086-.258-.172-.601-.344-.858ZM5.138 8.814a2.585 2.585 0 0 0 1.751.658c.772 0 1.449-.311 1.915-.82a2.583 2.583 0 0 0 .669-1.763c0-.778-.316-1.458-.832-1.925a2.585 2.585 0 0 0-1.752-.659 2.852 2.852 0 0 0-.081.002 2.56 2.56 0 0 0-1.844.83 2.584 2.584 0 0 0-.658 1.752c0 .777.316 1.458.832 1.925Z" fill="rgba(255, 255, 255, 1)" fill-rule="evenodd" data-name="Path 108"/></svg>