<?xml version="1.0" encoding="utf-8"?>
<!-- Generator: Adobe Illustrator 24.0.1, SVG Export Plug-In . SVG Version: 6.00 Build 0)  -->
<svg version="1.1" id="Layer_1" xmlns="http://www.w3.org/2000/svg" xmlns:xlink="http://www.w3.org/1999/xlink" x="0px" y="0px"
	 viewBox="0 0 13.6 13.6" style="enable-background:new 0 0 13.6 13.6;" xml:space="preserve">
<style type="text/css">
	.st0{fill:#FFFFFF;}
</style>
<path class="st0" d="M10.2,5.1C10.2,5.1,10.1,5.1,10.2,5.1L10.2,5.1L5.8,2C5.7,1.9,5.6,1.9,5.4,1.9S5.2,2,5,2L0.7,5.1
	C0.4,5.3,0.4,5.6,0.6,6l0,0C0.7,6,0.8,6.2,1,6.2c0.2,0.1,0.3,0,0.5-0.1l0,0L1.7,6v5.2c0,0.3,0.3,0.6,0.6,0.6l0,0h6.2
	c0.3,0,0.6-0.3,0.6-0.6l0,0V5.9l0,0C9.4,6,9.5,6.2,9.8,6.2c0.3,0,0.6-0.3,0.6-0.6C10.4,5.4,10.3,5.3,10.2,5.1z M7.9,10.6L7.9,10.6
	H6.7V8.7c0-0.7-0.5-1.2-1.2-1.2S4.2,8,4.2,8.7v1.9H2.9V5l2.5-1.8L7.9,5V10.6z"/>
</svg>
