<svg xmlns="http://www.w3.org/2000/svg" width="13.778" height="13.777" viewBox="921 23 13.778 13.777"><path d="M927.889 23c-3.79 0-6.889 3.1-6.889 6.889a6.909 6.909 0 0 0 6.889 6.888 6.91 6.91 0 0 0 6.89-6.888 6.91 6.91 0 0 0-6.89-6.889Zm0 8.61a1.727 1.727 0 0 1-1.722-1.721 1.727 1.727 0 0 1 1.722-1.722 1.727 1.727 0 0 1 1.722 1.722c0 .947-.775 1.722-1.722 1.722Zm-.013 3.445a5.172 5.172 0 0 0 .013 0 5.027 5.027 0 0 0 2.24-.516l-1.34-1.34c-.656.178-1.144.178-1.799 0l-1.34 1.34a5.024 5.024 0 0 0 2.226.516Zm4.663-2.927-1.34-1.34a4.216 4.216 0 0 0 .091-.41 2.877 2.877 0 0 0-.015-1.064 4.433 4.433 0 0 0-.076-.325l1.34-1.339a5.02 5.02 0 0 1 .517 2.236 4.566 4.566 0 0 1 0 .003 5.325 5.325 0 0 1 0 .01 5.02 5.02 0 0 1-.517 2.229Zm-2.41-6.889a5.022 5.022 0 0 0-2.24-.516 5.172 5.172 0 0 0-.013 0 5.018 5.018 0 0 0-2.226.516l1.34 1.34a4.442 4.442 0 0 1 .324-.076c.37-.072.7-.077 1.065-.015a4.226 4.226 0 0 1 .41.09l1.34-1.339Zm-7.407 4.647a4.566 4.566 0 0 0 0 .003c0 .775.172 1.55.517 2.239l1.34-1.34a4.439 4.439 0 0 1-.076-.324 2.879 2.879 0 0 1-.016-1.066 4.217 4.217 0 0 1 .092-.408l-1.34-1.34a5.025 5.025 0 0 0-.517 2.236Z" fill="rgba(188, 188, 203, 1)" fill-rule="evenodd" data-name="Support Iocn"/></svg>